# xmcd
#
# Track frame offsets: 
#        150
#        12517
#        38259
#        51679
#        66011
#        77836
#        87857
#        99933
#        110311
#        119400
#        132076
#        143332
#        155971
#        168099
#        179386
#        189820
#        202059
#        214647
#        227073
#        238823
#        250415
#        260377
#        271594
#        284656
#
# Disc length: 3977 seconds
#
# Revision: 0
# Processed by: cddbd v1.5.2PL0 Copyright (c) Steve Scherf et al.
# Submitted via: ExactAudioCopy v0.99pb3
#
DISCID=4d0f8718
DTITLE=Various Artist - Charly Blues Masterworks Vol 27
DYEAR=2009
DGENRE=Blues
TTITLE0=01-Little Walter - Juke
TTITLE1=02-Williamson, Sonny Boy - Take It Easy, Baby
TTITLE2=03-Walter Horton - Easy
TTITLE3=04-Joe Hill Louis - Tiger Man
TTITLE4=05-Hot Shot Love - Wolf Call Boogie
TTITLE5=06-Howlin' Wolf - All Night Boogie
TTITLE6=07-Billy Boy Arnold - Rockinitis
TTITLE7=08-Reed, Jimmy - I Ain't Got You
TTITLE8=09-Pryor, Snooky - You Tried To Ruin Me
TTITLE9=10-Nix, Willie and James Cotton - Baker Shop Boogie
TTITLE10=11-Papa Lightfoot - Mean Ol'Train
TTITLE11=12-Lewis, Pete - Harmonica Boogie
TTITLE12=13-Buster Brown - Fanny Mae
TTITLE13=14-Lazy Lester - I'm A Lover, Not A Fighter
TTITLE14=15-George Smith - Oopin' Doopin' Doopin'
TTITLE15=16-Jerry McCain - Wine-O-Wine
TTITLE16=17-Slim Harpo - I Got Love If You Want It
TTITLE17=18-Terry, Sonny - Whoopin' Blues
TTITLE18=19-Myers, Sammy - Sleeping In The Ground
TTITLE19=20-Kelly, Sam - Ramblin' Around
TTITLE20=21-Little Walter - Evan's Shuttle
TTITLE21=22-Williamson, Sonny Boy - Polly Put Your Kettle On
TTITLE22=23-Wells Junior - Junior's Wail
TTITLE23=24-Rod Piazza and The Mighty Flyers - Sinister Woman
EXTD=
EXTT0=
EXTT1=
EXTT2=
EXTT3=
EXTT4=
EXTT5=
EXTT6=
EXTT7=
EXTT8=
EXTT9=
EXTT10=
EXTT11=
EXTT12=
EXTT13=
EXTT14=
EXTT15=
EXTT16=
EXTT17=
EXTT18=
EXTT19=
EXTT20=
EXTT21=
EXTT22=
EXTT23=
PLAYORDER=
